<svg xmlns="http://www.w3.org/2000/svg" width="12.976" height="24" viewBox="0 0 12.976 24">
  <path id="Path_1300" data-name="Path 1300" d="M34.564,0,31.452,0C27.955,0,25.7,2.318,25.7,5.906V8.63H22.566a.489.489,0,0,0-.489.49v3.946a.489.489,0,0,0,.489.489H25.7v9.956a.489.489,0,0,0,.489.489h4.083a.489.489,0,0,0,.489-.489V13.554h3.659a.489.489,0,0,0,.489-.489V9.119a.49.49,0,0,0-.49-.49h-3.66V6.321c0-1.11.264-1.673,1.71-1.673h2.1a.489.489,0,0,0,.489-.489V.494A.49.49,0,0,0,34.564,0Z" transform="translate(-22.077)"/>
</svg>
