<svg xmlns="http://www.w3.org/2000/svg" width="24" height="24" viewBox="0 0 24 24">
  <g id="Group_551" data-name="Group 551" transform="translate(-466.95 -3055.95)">
    <g id="instagram" transform="translate(466.95 3055.95)">
      <path id="Path_1301" data-name="Path 1301" d="M17.5,0H6.5A6.5,6.5,0,0,0,0,6.5V17.5A6.5,6.5,0,0,0,6.5,24H17.5A6.5,6.5,0,0,0,24,17.5V6.5A6.5,6.5,0,0,0,17.5,0ZM12,18.562A6.562,6.562,0,1,1,18.562,12,6.57,6.57,0,0,1,12,18.562ZM18.719,6.985a1.939,1.939,0,1,1,1.939-1.939A1.941,1.941,0,0,1,18.719,6.985Zm0,0"/>
      <path id="Path_1302" data-name="Path 1302" d="M150,146.02A3.983,3.983,0,1,0,153.986,150,3.988,3.988,0,0,0,150,146.02Zm0,0" transform="translate(-138.003 -138.003)"/>
    </g>
  </g>
</svg>
