<svg id="Group_533" data-name="Group 533" xmlns="http://www.w3.org/2000/svg" width="26.273" height="24" viewBox="0 0 26.273 24">
  <path id="Path_1292" data-name="Path 1292" d="M.865,195.719H4.329a.865.865,0,0,0,.865-.865V179.715a.865.865,0,0,0-.865-.865H.865a.865.865,0,0,0-.865.865v15.139A.865.865,0,0,0,.865,195.719Z" transform="translate(0 -171.72)"/>
  <path id="Path_1293" data-name="Path 1293" d="M.865,28.722H4.329a.865.865,0,0,0,.865-.865V24.781a.865.865,0,0,0-.865-.865H.865A.865.865,0,0,0,0,24.781v3.076A.865.865,0,0,0,.865,28.722Z" transform="translate(0 -23.916)"/>
  <path id="Path_1294" data-name="Path 1294" d="M198.133,171.845a5.267,5.267,0,0,0-2.153-1.58,7.8,7.8,0,0,0-3.142-.619,7.7,7.7,0,0,0-5.914,2.664c-.322.353-.555.276-.555-.2v-1.153a.865.865,0,0,0-.865-.865h-3.094a.865.865,0,0,0-.865.865v15.139a.865.865,0,0,0,.865.865h3.464a.865.865,0,0,0,.865-.865v-5.265a16.938,16.938,0,0,1,.4-4.51,3.725,3.725,0,0,1,1.469-1.959,4.165,4.165,0,0,1,2.421-.74,3.09,3.09,0,0,1,1.8.518,2.884,2.884,0,0,1,1.081,1.451,15.48,15.48,0,0,1,.333,4.113v6.392a.865.865,0,0,0,.865.865h3.464a.865.865,0,0,0,.865-.865v-8.574a16.237,16.237,0,0,0-.286-3.493A5.722,5.722,0,0,0,198.133,171.845Z" transform="translate(-173.163 -162.958)"/>
</svg>
