<svg xmlns="http://www.w3.org/2000/svg" width="25.017" height="25.016" viewBox="0 0 25.017 25.016">
  <g id="Group_552" data-name="Group 552" transform="translate(-680.034 -675.645)">
    <g id="Group_540" data-name="Group 540">
      <g id="Group_539" data-name="Group 539">
        <path id="Path_1303" data-name="Path 1303" d="M694.919,688.487,685.527,699.3a2.925,2.925,0,0,1-4.136-4.136l10.8-9.419" fill="none" stroke="#da5931" stroke-linecap="round" stroke-linejoin="round" stroke-width="1"/>
      </g>
    </g>
    <path id="Path_1304" data-name="Path 1304" d="M694.919,688.487a6.542,6.542,0,0,0,7.7-1.153,6.412,6.412,0,0,0,1.816-5.718L701.3,684.69s-3.561-1.269-3.791-1.5-1.5-3.79-1.5-3.79l3.074-3.138h0a6.428,6.428,0,0,0-5.721,1.817,6.547,6.547,0,0,0-1.167,7.67" fill="none" stroke="#da5931" stroke-linecap="round" stroke-linejoin="round" stroke-width="1"/>
  </g>
</svg>
