<svg xmlns="http://www.w3.org/2000/svg" width="20.175" height="25" viewBox="0 0 20.175 25">
  <g id="Group_619" data-name="Group 619" transform="translate(-1450.886 -427.823)">
    <g id="Group_612" data-name="Group 612">
      <path id="Path_1326" data-name="Path 1326" d="M1464.328,441.265l-1.073-3.474-9.468-9.468-2.4,2.4,9.468,9.468Z" fill="none" stroke="#da5931" stroke-linecap="round" stroke-linejoin="round" stroke-width="1"/>
      <line id="Line_21" data-name="Line 21" x1="2.402" y2="2.402" transform="translate(1452.862 429.799)" fill="none" stroke="#da5931" stroke-linecap="round" stroke-linejoin="round" stroke-width="1"/>
      <line id="Line_22" data-name="Line 22" x1="2.402" y2="2.402" transform="translate(1460.767 437.703)" fill="none" stroke="#da5931" stroke-linecap="round" stroke-linejoin="round" stroke-width="1"/>
      <path id="Path_1327" data-name="Path 1327" d="M1456.107,433.691" fill="none" stroke="#da5931" stroke-linecap="round" stroke-linejoin="round" stroke-width="1"/>
      <path id="Path_1328" data-name="Path 1328" d="M1459.312,436.9" fill="none" stroke="#da5931" stroke-linecap="round" stroke-linejoin="round" stroke-width="1"/>
    </g>
    <line id="Line_23" data-name="Line 23" x2="8.61" transform="translate(1458.185 428.924)" fill="none" stroke="#da5931" stroke-linecap="round" stroke-linejoin="round" stroke-width="1"/>
    <path id="Path_1329" data-name="Path 1329" d="M1470.561,432.69v17.62a2.012,2.012,0,0,1-2.012,2.013h-13.084a2.013,2.013,0,0,1-2.013-2.013V436.7" fill="none" stroke="#da5931" stroke-linecap="round" stroke-linejoin="round" stroke-width="1"/>
    <path id="Path_1330" data-name="Path 1330" d="M1470.561,432.69l-3.787.021.021-3.787Z" fill="none" stroke="#da5931" stroke-linecap="round" stroke-linejoin="round" stroke-width="1"/>
    <path id="Path_1331" data-name="Path 1331" d="M1456.763,444.41l4.167,4.5,7.667-7.3" fill="none" stroke="#da5931" stroke-linecap="round" stroke-linejoin="round" stroke-width="1"/>
  </g>
</svg>
