<svg xmlns="http://www.w3.org/2000/svg" width="24.64" height="25" viewBox="0 0 24.64 25">
  <g id="Group_545" data-name="Group 545" transform="translate(0.5 0.5)">
    <g id="Group_542" data-name="Group 542" transform="translate(5.91)">
      <path id="Path_1305" data-name="Path 1305" d="M1171.964,269.291l-5.877-3.081,5.877-3.081,5.877,3.081Z" transform="translate(-1166.087 -263.128)" fill="none" stroke="#da5931" stroke-linecap="round" stroke-linejoin="round" stroke-width="1"/>
      <path id="Path_1306" data-name="Path 1306" d="M1171.964,269.291l-5.877-3.081.033,7.4L1172,276.7Z" transform="translate(-1166.087 -263.128)" fill="none" stroke="#da5931" stroke-linecap="round" stroke-linejoin="round" stroke-width="1"/>
      <path id="Path_1307" data-name="Path 1307" d="M1172.03,269.291l5.877-3.081-.033,7.4L1172,276.7Z" transform="translate(-1166.087 -263.128)" fill="none" stroke="#da5931" stroke-linecap="round" stroke-linejoin="round" stroke-width="1"/>
    </g>
    <g id="Group_543" data-name="Group 543" transform="translate(0 10.432)">
      <path id="Path_1308" data-name="Path 1308" d="M1166.054,279.723l-5.876-3.081,5.876-3.081,5.877,3.081Z" transform="translate(-1160.177 -273.56)" fill="none" stroke="#da5931" stroke-linecap="round" stroke-linejoin="round" stroke-width="1"/>
      <path id="Path_1309" data-name="Path 1309" d="M1166.054,279.723l-5.876-3.081.033,7.4,5.877,3.081Z" transform="translate(-1160.177 -273.56)" fill="none" stroke="#da5931" stroke-linecap="round" stroke-linejoin="round" stroke-width="1"/>
      <path id="Path_1310" data-name="Path 1310" d="M1166.12,279.723l5.876-3.081-.033,7.4-5.877,3.081Z" transform="translate(-1160.177 -273.56)" fill="none" stroke="#da5931" stroke-linecap="round" stroke-linejoin="round" stroke-width="1"/>
    </g>
    <g id="Group_544" data-name="Group 544" transform="translate(11.82 10.432)">
      <path id="Path_1311" data-name="Path 1311" d="M1177.874,279.723,1172,276.641l5.877-3.081,5.877,3.081Z" transform="translate(-1171.997 -273.56)" fill="none" stroke="#da5931" stroke-linecap="round" stroke-linejoin="round" stroke-width="1"/>
      <path id="Path_1312" data-name="Path 1312" d="M1177.874,279.723,1172,276.641l.033,7.4,5.877,3.081Z" transform="translate(-1171.997 -273.56)" fill="none" stroke="#da5931" stroke-linecap="round" stroke-linejoin="round" stroke-width="1"/>
      <path id="Path_1313" data-name="Path 1313" d="M1177.94,279.723l5.877-3.081-.033,7.4-5.877,3.081Z" transform="translate(-1171.997 -273.56)" fill="none" stroke="#da5931" stroke-linecap="round" stroke-linejoin="round" stroke-width="1"/>
    </g>
  </g>
</svg>
