<svg xmlns="http://www.w3.org/2000/svg" width="24" height="21.643" viewBox="0 0 24 21.643">
  <g id="Group_590" data-name="Group 590" transform="translate(-584.748 -759.937)">
    <g id="Rectangle_916" data-name="Rectangle 916" transform="translate(584.748 759.937)" fill="none" stroke="#eb4e1d" stroke-linejoin="round" stroke-width="1">
      <path d="M0,0H24a0,0,0,0,1,0,0V19.647a2,2,0,0,1-2,2H2a2,2,0,0,1-2-2V0A0,0,0,0,1,0,0Z" stroke="none"/>
      <path d="M1,.5H23a.5.5,0,0,1,.5.5V19.647a1.5,1.5,0,0,1-1.5,1.5H2a1.5,1.5,0,0,1-1.5-1.5V1A.5.5,0,0,1,1,.5Z" fill="none"/>
    </g>
    <line id="Line_14" data-name="Line 14" x2="24" transform="translate(584.748 764.284)" fill="none" stroke="#eb4e1d" stroke-linejoin="round" stroke-width="1"/>
    <g id="Ellipse_20" data-name="Ellipse 20" transform="translate(587.279 761.887)" fill="none" stroke="#eb4e1d" stroke-miterlimit="10" stroke-width="1">
      <circle cx="0.487" cy="0.487" r="0.487" stroke="none"/>
      <circle cx="0.487" cy="0.487" r="0.013" fill="none"/>
    </g>
    <g id="Ellipse_21" data-name="Ellipse 21" transform="translate(590.701 761.887)" fill="none" stroke="#eb4e1d" stroke-miterlimit="10" stroke-width="1">
      <circle cx="0.487" cy="0.487" r="0.487" stroke="none"/>
      <circle cx="0.487" cy="0.487" r="0.013" fill="none"/>
    </g>
    <g id="Ellipse_22" data-name="Ellipse 22" transform="translate(594.123 761.887)" fill="none" stroke="#eb4e1d" stroke-miterlimit="10" stroke-width="1">
      <circle cx="0.487" cy="0.487" r="0.487" stroke="none"/>
      <circle cx="0.487" cy="0.487" r="0.013" fill="none"/>
    </g>
    <path id="Path_1320" data-name="Path 1320" d="M593.522,775.475l-3.172-2.72,3.172-2.72" fill="none" stroke="#eb4e1d" stroke-linecap="round" stroke-linejoin="round" stroke-width="1"/>
    <path id="Path_1321" data-name="Path 1321" d="M599.975,770.035l3.172,2.72-3.172,2.72" fill="none" stroke="#eb4e1d" stroke-linecap="round" stroke-linejoin="round" stroke-width="1"/>
    <line id="Line_15" data-name="Line 15" x1="3.217" y2="9.149" transform="translate(595.14 768.181)" fill="none" stroke="#eb4e1d" stroke-linecap="round" stroke-linejoin="round" stroke-width="1"/>
  </g>
</svg>
